# xmcd
#
# Track frame offsets:
#	150
#	13029
#	27820
#	46901
#	66709
#	85518
#	101170
#	121377
#	141989
#	158423
#	174912
#
# Disc length: 2668 seconds
#
# Revision: 1
# Processed by: cddbd v1.5PL3 Copyright (c) Steve Scherf et al.
# Submitted via: audiograbber 1.83.01
#
DISCID=880a6a0b
DTITLE=Tricia Walker - Fresh Cut Tunes
DYEAR=1900
DGENRE=Country
TTITLE0=Sho' Is Hot
TTITLE1=Thinkin' 'Bout Me
TTITLE2=What A Wonderful Day
TTITLE3=Keep Drivin' Tonight
TTITLE4=A Good Rain Comin' Down
TTITLE5=I'll Be Waiting Here For You
TTITLE6=It Was A Very Good Year
TTITLE7=Amelia Had Wings
TTITLE8=Down In Capetown
TTITLE9=Ride It Out
TTITLE10=Communion
EXTD=
EXTT0=
EXTT1=
EXTT2=
EXTT3=
EXTT4=
EXTT5=
EXTT6=
EXTT7=
EXTT8=
EXTT9=
EXTT10=
PLAYORDER=
